<svg width="90" height="90" viewBox="0 0 90 90" fill="none" xmlns="http://www.w3.org/2000/svg">
<path fill-rule="evenodd" clip-rule="evenodd" d="M0 45C0 20.1472 20.0892 0 44.8705 0C69.6518 0 89.741 20.1472 89.741 45C89.741 69.8528 69.6518 90 44.8705 90C20.0892 90 0 69.8528 0 45ZM44.8727 21C38.3734 21 37.5578 21.0285 35.0051 21.145C32.4574 21.262 30.7184 21.6665 29.1968 22.26C27.6228 22.873 26.2877 23.693 24.9575 25.0275C23.6263 26.3616 22.8087 27.7006 22.1955 29.2786C21.6022 30.8051 21.1983 32.5496 21.0837 35.1036C20.9695 37.6637 20.9396 38.4822 20.9396 45.0003C20.9396 51.5183 20.9685 52.3338 21.0842 54.8939C21.2013 57.4489 21.6047 59.1929 22.196 60.7189C22.8077 62.2974 23.6253 63.6364 24.956 64.9705C26.2857 66.3055 27.6209 67.1275 29.1938 67.7405C30.7165 68.334 32.456 68.7385 35.0031 68.8555C37.5558 68.972 38.3709 69.0005 44.8698 69.0005C51.3696 69.0005 52.1827 68.972 54.7354 68.8555C57.2831 68.7385 59.0241 68.334 60.5467 67.7405C62.1201 67.1275 63.4533 66.3055 64.783 64.9705C66.1142 63.6364 66.9318 62.2974 67.5451 60.7194C68.1334 59.1929 68.5372 57.4484 68.6568 54.8944C68.7715 52.3343 68.8014 51.5183 68.8014 45.0003C68.8014 38.4822 68.7715 37.6642 68.6568 35.1041C68.5372 32.5491 68.1334 30.8051 67.5451 29.2791C66.9318 27.7006 66.1142 26.3616 64.783 25.0275C63.4518 23.6925 62.1206 22.8725 60.5452 22.26C59.0196 21.6665 57.2796 21.262 54.7319 21.145C52.1792 21.0285 51.3666 21 44.8653 21H44.8727Z" fill="black"/>
<path fill-rule="evenodd" clip-rule="evenodd" d="M42.7259 25.325C43.3631 25.324 44.074 25.325 44.8727 25.325C51.2624 25.325 52.0197 25.348 54.5429 25.463C56.8762 25.57 58.1426 25.9611 58.9862 26.2896C60.103 26.7246 60.8992 27.2446 61.7363 28.0846C62.5738 28.9246 63.0924 29.7246 63.5271 30.8446C63.8547 31.6896 64.245 32.9596 64.3512 35.2996C64.4659 37.8297 64.4908 38.5897 64.4908 44.9948C64.4908 51.3998 64.4659 52.1598 64.3512 54.6898C64.2445 57.0299 63.8547 58.2999 63.5271 59.1449C63.0933 60.2649 62.5738 61.0624 61.7363 61.9019C60.8987 62.7419 60.1035 63.2619 58.9862 63.6969C58.1436 64.0269 56.8762 64.4169 54.5429 64.5239C52.0202 64.639 51.2624 64.664 44.8727 64.664C38.4826 64.664 37.7253 64.639 35.2026 64.5239C32.8693 64.4159 31.6029 64.0249 30.7588 63.6964C29.642 63.2614 28.8443 62.7414 28.0067 61.9014C27.1692 61.0614 26.6506 60.2634 26.2159 59.1429C25.8883 58.2979 25.498 57.0279 25.3918 54.6879C25.2771 52.1578 25.2542 51.3978 25.2542 44.9888C25.2542 38.5797 25.2771 37.8237 25.3918 35.2937C25.4985 32.9536 25.8883 31.6836 26.2159 30.8376C26.6496 29.7176 27.1692 28.9176 28.0067 28.0776C28.8443 27.2376 29.642 26.7176 30.7588 26.2816C31.6024 25.9516 32.8693 25.5615 35.2026 25.454C37.4102 25.354 38.2657 25.324 42.7259 25.319V25.325ZM57.647 29.3101C56.0616 29.3101 54.7753 30.5986 54.7753 32.1891C54.7753 33.7791 56.0616 35.0691 57.647 35.0691C59.2325 35.0691 60.5188 33.7791 60.5188 32.1891C60.5188 30.5991 59.2325 29.3101 57.647 29.3101ZM44.8727 32.6751C38.0858 32.6751 32.5831 38.1937 32.5831 45.0003C32.5831 51.8068 38.0858 57.3229 44.8727 57.3229C51.6597 57.3229 57.1604 51.8068 57.1604 45.0003C57.1604 38.1937 51.6597 32.6751 44.8727 32.6751Z" fill="black"/>
<path fill-rule="evenodd" clip-rule="evenodd" d="M44.8727 37.0002C49.2781 37.0002 52.8498 40.5817 52.8498 45.0003C52.8498 49.4183 49.2781 53.0003 44.8727 53.0003C40.4669 53.0003 36.8957 49.4183 36.8957 45.0003C36.8957 40.5817 40.4669 37.0002 44.8727 37.0002Z" fill="black"/>
</svg>
